<svg xmlns="http://www.w3.org/2000/svg" viewBox="0 0 24 24" fill="currentColor">
  <path d="M12.5 6.5C10.8 6.5 9.5 7.8 9.5 9.5c0 .3.1.6.2.9C7.6 11.2 6 12.9 6 15c0 2.2 1.8 4 4 4h8c1.7 0 3-1.3 3-3 0-1.4-1-2.6-2.4-2.9.1-.4.4-.6.4-1.1 0-1.9-1.6-3.5-3.5-3.5-.8 0-1.5.3-2.1.7-.4-1.8-2-3.2-3.9-3.2v.5zm0 1c1.4 0 2.5 1.1 2.5 2.5 0 .3-.1.6-.2.9l-.2.4.4.2c.3.2.6.3 1 .3 1.4 0 2.5 1.1 2.5 2.5 0 .3-.1.6-.2.9l-.1.3.3.1c1 .3 1.8 1.2 1.8 2.3 0 1.4-1.1 2.5-2.5 2.5H10c-1.9 0-3.5-1.6-3.5-3.5s1.6-3.5 3.5-3.5c.3 0 .6 0 .9.1l.4.1.1-.4c.1-.3.2-.6.2-.9 0-1.4 1.1-2.5 2.5-2.5z"/>
  <circle cx="7" cy="8" r="1"/>
  <circle cx="17" cy="7" r="1"/>
  <circle cx="14" cy="4" r="1"/>
</svg>