<svg width="120" height="120" viewBox="0 0 120 120" fill="none" xmlns="http://www.w3.org/2000/svg">
<path fill-rule="evenodd" clip-rule="evenodd" d="M105 7.5H15C10.8579 7.5 7.5 10.8579 7.5 15V105C7.5 109.142 10.8579 112.5 15 112.5H105C109.142 112.5 112.5 109.142 112.5 105V15C112.5 10.8579 109.142 7.5 105 7.5ZM15 0C6.71573 0 0 6.71573 0 15V105C0 113.284 6.71573 120 15 120H105C113.284 120 120 113.284 120 105V15C120 6.71573 113.284 0 105 0H15Z" fill="#606060"/>
<path d="M60 20C45.088 20 33 31.588 33 45.88C33 65.16 60 100 60 100C60 100 87 65.16 87 45.88C87 31.588 74.912 20 60 20ZM60 56.2C54.036 56.2 49.2 51.484 49.2 45.68C49.2 39.876 54.036 35.16 60 35.16C65.964 35.16 70.8 39.876 70.8 45.68C70.8 51.484 65.964 56.2 60 56.2Z" fill="#606060"/>
</svg>
